<mxfile host="drawio-plugin" modified="2022-11-18T18:15:10.974Z" agent="5.0 (Windows NT 6.2; Win64; x64) AppleWebKit/537.36 (KHTML, like Gecko) Chrome/98.0.4758.102 Safari/537.36" etag="fHyZye4XYW2apNTcyyQj" version="20.5.3" type="embed"><diagram id="C5RBs43oDa-KdzZeNtuy" name="Page-1"><mxGraphModel dx="2735" dy="703" grid="1" gridSize="10" guides="1" tooltips="1" connect="1" arrows="1" fold="1" page="1" pageScale="1" pageWidth="1654" pageHeight="2336" math="0" shadow="0"><root><mxCell id="WIyWlLk6GJQsqaUBKTNV-0"/><mxCell id="WIyWlLk6GJQsqaUBKTNV-1" parent="WIyWlLk6GJQsqaUBKTNV-0"/><mxCell id="zkfFHV4jXpPFQw0GAbJ--0" value="Usuario" style="swimlane;fontStyle=2;align=center;verticalAlign=top;childLayout=stackLayout;horizontal=1;startSize=26;horizontalStack=0;resizeParent=1;resizeLast=0;collapsible=1;marginBottom=0;rounded=0;shadow=0;strokeWidth=1;" parent="WIyWlLk6GJQsqaUBKTNV-1" vertex="1"><mxGeometry x="400" y="80" width="160" height="208" as="geometry"><mxRectangle x="230" y="140" width="160" height="26" as="alternateBounds"/></mxGeometry></mxCell><mxCell id="JDHlonyrIvoLY-r9E64h-44" value="-id: long" style="text;strokeColor=none;fillColor=none;align=left;verticalAlign=top;spacingLeft=4;spacingRight=4;overflow=hidden;rotatable=0;points=[[0,0.5],[1,0.5]];portConstraint=eastwest;" parent="zkfFHV4jXpPFQw0GAbJ--0" vertex="1"><mxGeometry y="26" width="160" height="26" as="geometry"/></mxCell><mxCell id="JDHlonyrIvoLY-r9E64h-45" value="-uuid: uuid" style="text;strokeColor=none;fillColor=none;align=left;verticalAlign=top;spacingLeft=4;spacingRight=4;overflow=hidden;rotatable=0;points=[[0,0.5],[1,0.5]];portConstraint=eastwest;" parent="zkfFHV4jXpPFQw0GAbJ--0" vertex="1"><mxGeometry y="52" width="160" height="26" as="geometry"/></mxCell><mxCell id="zkfFHV4jXpPFQw0GAbJ--1" value="-nombre: string" style="text;align=left;verticalAlign=top;spacingLeft=4;spacingRight=4;overflow=hidden;rotatable=0;points=[[0,0.5],[1,0.5]];portConstraint=eastwest;" parent="zkfFHV4jXpPFQw0GAbJ--0" vertex="1"><mxGeometry y="78" width="160" height="26" as="geometry"/></mxCell><mxCell id="zkfFHV4jXpPFQw0GAbJ--2" value="-apellido: string" style="text;align=left;verticalAlign=top;spacingLeft=4;spacingRight=4;overflow=hidden;rotatable=0;points=[[0,0.5],[1,0.5]];portConstraint=eastwest;rounded=0;shadow=0;html=0;" parent="zkfFHV4jXpPFQw0GAbJ--0" vertex="1"><mxGeometry y="104" width="160" height="26" as="geometry"/></mxCell><mxCell id="zkfFHV4jXpPFQw0GAbJ--3" value="-email: string" style="text;align=left;verticalAlign=top;spacingLeft=4;spacingRight=4;overflow=hidden;rotatable=0;points=[[0,0.5],[1,0.5]];portConstraint=eastwest;rounded=0;shadow=0;html=0;" parent="zkfFHV4jXpPFQw0GAbJ--0" vertex="1"><mxGeometry y="130" width="160" height="26" as="geometry"/></mxCell><mxCell id="ugtasmN3zLT_TulPQqUj-0" value="-password: string" style="text;align=left;verticalAlign=top;spacingLeft=4;spacingRight=4;overflow=hidden;rotatable=0;points=[[0,0.5],[1,0.5]];portConstraint=eastwest;rounded=0;shadow=0;html=0;" parent="zkfFHV4jXpPFQw0GAbJ--0" vertex="1"><mxGeometry y="156" width="160" height="26" as="geometry"/></mxCell><mxCell id="zkfFHV4jXpPFQw0GAbJ--5" value="-perfil: enum" style="text;align=left;verticalAlign=top;spacingLeft=4;spacingRight=4;overflow=hidden;rotatable=0;points=[[0,0.5],[1,0.5]];portConstraint=eastwest;" parent="zkfFHV4jXpPFQw0GAbJ--0" vertex="1"><mxGeometry y="182" width="160" height="26" as="geometry"/></mxCell><mxCell id="ugtasmN3zLT_TulPQqUj-5" value="Perfil&lt;&lt;enum&gt;&gt;" style="swimlane;fontStyle=2;childLayout=stackLayout;horizontal=1;startSize=26;fillColor=none;horizontalStack=0;resizeParent=1;resizeParentMax=0;resizeLast=0;collapsible=1;marginBottom=0;" parent="WIyWlLk6GJQsqaUBKTNV-1" vertex="1"><mxGeometry x="890" y="190" width="140" height="104" as="geometry"/></mxCell><mxCell id="ugtasmN3zLT_TulPQqUj-6" value="Encargado    " style="text;strokeColor=none;fillColor=none;align=left;verticalAlign=top;spacingLeft=4;spacingRight=4;overflow=hidden;rotatable=0;points=[[0,0.5],[1,0.5]];portConstraint=eastwest;" parent="ugtasmN3zLT_TulPQqUj-5" vertex="1"><mxGeometry y="26" width="140" height="26" as="geometry"/></mxCell><mxCell id="ugtasmN3zLT_TulPQqUj-7" value="Trabajador" style="text;strokeColor=none;fillColor=none;align=left;verticalAlign=top;spacingLeft=4;spacingRight=4;overflow=hidden;rotatable=0;points=[[0,0.5],[1,0.5]];portConstraint=eastwest;" parent="ugtasmN3zLT_TulPQqUj-5" vertex="1"><mxGeometry y="52" width="140" height="26" as="geometry"/></mxCell><mxCell id="ugtasmN3zLT_TulPQqUj-8" value="Cliente" style="text;strokeColor=none;fillColor=none;align=left;verticalAlign=top;spacingLeft=4;spacingRight=4;overflow=hidden;rotatable=0;points=[[0,0.5],[1,0.5]];portConstraint=eastwest;" parent="ugtasmN3zLT_TulPQqUj-5" vertex="1"><mxGeometry y="78" width="140" height="26" as="geometry"/></mxCell><mxCell id="ugtasmN3zLT_TulPQqUj-10" value="Máquina" style="swimlane;fontStyle=2;childLayout=stackLayout;horizontal=1;startSize=26;fillColor=none;horizontalStack=0;resizeParent=1;resizeParentMax=0;resizeLast=0;collapsible=1;marginBottom=0;" parent="WIyWlLk6GJQsqaUBKTNV-1" vertex="1"><mxGeometry x="70" y="145" width="140" height="182" as="geometry"/></mxCell><mxCell id="JDHlonyrIvoLY-r9E64h-46" value="-id: long" style="text;strokeColor=none;fillColor=none;align=left;verticalAlign=top;spacingLeft=4;spacingRight=4;overflow=hidden;rotatable=0;points=[[0,0.5],[1,0.5]];portConstraint=eastwest;" parent="ugtasmN3zLT_TulPQqUj-10" vertex="1"><mxGeometry y="26" width="140" height="26" as="geometry"/></mxCell><mxCell id="JDHlonyrIvoLY-r9E64h-47" value="-uuid: uuid" style="text;strokeColor=none;fillColor=none;align=left;verticalAlign=top;spacingLeft=4;spacingRight=4;overflow=hidden;rotatable=0;points=[[0,0.5],[1,0.5]];portConstraint=eastwest;" parent="ugtasmN3zLT_TulPQqUj-10" vertex="1"><mxGeometry y="52" width="140" height="26" as="geometry"/></mxCell><mxCell id="ugtasmN3zLT_TulPQqUj-11" value="-marca: string" style="text;strokeColor=none;fillColor=none;align=left;verticalAlign=top;spacingLeft=4;spacingRight=4;overflow=hidden;rotatable=0;points=[[0,0.5],[1,0.5]];portConstraint=eastwest;" parent="ugtasmN3zLT_TulPQqUj-10" vertex="1"><mxGeometry y="78" width="140" height="26" as="geometry"/></mxCell><mxCell id="ugtasmN3zLT_TulPQqUj-12" value="-modelo: string" style="text;strokeColor=none;fillColor=none;align=left;verticalAlign=top;spacingLeft=4;spacingRight=4;overflow=hidden;rotatable=0;points=[[0,0.5],[1,0.5]];portConstraint=eastwest;" parent="ugtasmN3zLT_TulPQqUj-10" vertex="1"><mxGeometry y="104" width="140" height="26" as="geometry"/></mxCell><mxCell id="ugtasmN3zLT_TulPQqUj-14" value="-fechaAdquisicion: Date" style="text;strokeColor=none;fillColor=none;align=left;verticalAlign=top;spacingLeft=4;spacingRight=4;overflow=hidden;rotatable=0;points=[[0,0.5],[1,0.5]];portConstraint=eastwest;" parent="ugtasmN3zLT_TulPQqUj-10" vertex="1"><mxGeometry y="130" width="140" height="26" as="geometry"/></mxCell><mxCell id="ugtasmN3zLT_TulPQqUj-15" value="-numSerie: long" style="text;strokeColor=none;fillColor=none;align=left;verticalAlign=top;spacingLeft=4;spacingRight=4;overflow=hidden;rotatable=0;points=[[0,0.5],[1,0.5]];portConstraint=eastwest;" parent="ugtasmN3zLT_TulPQqUj-10" vertex="1"><mxGeometry y="156" width="140" height="26" as="geometry"/></mxCell><mxCell id="JDHlonyrIvoLY-r9E64h-86" style="edgeStyle=none;rounded=0;orthogonalLoop=1;jettySize=auto;html=1;exitX=0.5;exitY=0;exitDx=0;exitDy=0;startArrow=none;startFill=0;endArrow=none;endFill=0;endSize=10;" parent="WIyWlLk6GJQsqaUBKTNV-1" source="ugtasmN3zLT_TulPQqUj-16" edge="1"><mxGeometry relative="1" as="geometry"><mxPoint x="140" y="359.0000000000001" as="targetPoint"/><Array as="points"><mxPoint x="50" y="359"/></Array></mxGeometry></mxCell><mxCell id="ugtasmN3zLT_TulPQqUj-16" value="Encordadora" style="swimlane;fontStyle=2;childLayout=stackLayout;horizontal=1;startSize=26;fillColor=none;horizontalStack=0;resizeParent=1;resizeParentMax=0;resizeLast=0;collapsible=1;marginBottom=0;" parent="WIyWlLk6GJQsqaUBKTNV-1" vertex="1"><mxGeometry x="-20" y="419" width="140" height="104" as="geometry"/></mxCell><mxCell id="ugtasmN3zLT_TulPQqUj-17" value="-manual: boolean" style="text;strokeColor=none;fillColor=none;align=left;verticalAlign=top;spacingLeft=4;spacingRight=4;overflow=hidden;rotatable=0;points=[[0,0.5],[1,0.5]];portConstraint=eastwest;" parent="ugtasmN3zLT_TulPQqUj-16" vertex="1"><mxGeometry y="26" width="140" height="26" as="geometry"/></mxCell><mxCell id="ugtasmN3zLT_TulPQqUj-18" value="-tensionMax: double" style="text;strokeColor=none;fillColor=none;align=left;verticalAlign=top;spacingLeft=4;spacingRight=4;overflow=hidden;rotatable=0;points=[[0,0.5],[1,0.5]];portConstraint=eastwest;" parent="ugtasmN3zLT_TulPQqUj-16" vertex="1"><mxGeometry y="52" width="140" height="26" as="geometry"/></mxCell><mxCell id="ugtasmN3zLT_TulPQqUj-19" value="-tensionMin: double" style="text;strokeColor=none;fillColor=none;align=left;verticalAlign=top;spacingLeft=4;spacingRight=4;overflow=hidden;rotatable=0;points=[[0,0.5],[1,0.5]];portConstraint=eastwest;" parent="ugtasmN3zLT_TulPQqUj-16" vertex="1"><mxGeometry y="78" width="140" height="26" as="geometry"/></mxCell><mxCell id="JDHlonyrIvoLY-r9E64h-87" style="edgeStyle=none;rounded=0;orthogonalLoop=1;jettySize=auto;html=1;exitX=0.5;exitY=0;exitDx=0;exitDy=0;startArrow=none;startFill=0;endArrow=none;endFill=0;endSize=10;" parent="WIyWlLk6GJQsqaUBKTNV-1" source="ugtasmN3zLT_TulPQqUj-20" edge="1"><mxGeometry relative="1" as="geometry"><mxPoint x="140" y="359.0000000000001" as="targetPoint"/><Array as="points"><mxPoint x="235" y="359"/></Array></mxGeometry></mxCell><mxCell id="ugtasmN3zLT_TulPQqUj-20" value="Personalizadora" style="swimlane;fontStyle=2;childLayout=stackLayout;horizontal=1;startSize=26;fillColor=none;horizontalStack=0;resizeParent=1;resizeParentMax=0;resizeLast=0;collapsible=1;marginBottom=0;" parent="WIyWlLk6GJQsqaUBKTNV-1" vertex="1"><mxGeometry x="160" y="419" width="150" height="104" as="geometry"/></mxCell><mxCell id="ugtasmN3zLT_TulPQqUj-21" value="-maniobrabilidad: boolean" style="text;strokeColor=none;fillColor=none;align=left;verticalAlign=top;spacingLeft=4;spacingRight=4;overflow=hidden;rotatable=0;points=[[0,0.5],[1,0.5]];portConstraint=eastwest;" parent="ugtasmN3zLT_TulPQqUj-20" vertex="1"><mxGeometry y="26" width="150" height="26" as="geometry"/></mxCell><mxCell id="ugtasmN3zLT_TulPQqUj-22" value="-balance: boolean" style="text;strokeColor=none;fillColor=none;align=left;verticalAlign=top;spacingLeft=4;spacingRight=4;overflow=hidden;rotatable=0;points=[[0,0.5],[1,0.5]];portConstraint=eastwest;" parent="ugtasmN3zLT_TulPQqUj-20" vertex="1"><mxGeometry y="52" width="150" height="26" as="geometry"/></mxCell><mxCell id="ugtasmN3zLT_TulPQqUj-23" value="-rigidez: boolean" style="text;strokeColor=none;fillColor=none;align=left;verticalAlign=top;spacingLeft=4;spacingRight=4;overflow=hidden;rotatable=0;points=[[0,0.5],[1,0.5]];portConstraint=eastwest;" parent="ugtasmN3zLT_TulPQqUj-20" vertex="1"><mxGeometry y="78" width="150" height="26" as="geometry"/></mxCell><mxCell id="JDHlonyrIvoLY-r9E64h-56" style="edgeStyle=orthogonalEdgeStyle;rounded=0;orthogonalLoop=1;jettySize=auto;html=1;exitX=0.5;exitY=0;exitDx=0;exitDy=0;endArrow=none;endFill=0;startArrow=none;startFill=0;" parent="WIyWlLk6GJQsqaUBKTNV-1" source="ugtasmN3zLT_TulPQqUj-32" target="JDHlonyrIvoLY-r9E64h-0" edge="1"><mxGeometry relative="1" as="geometry"/></mxCell><mxCell id="ugtasmN3zLT_TulPQqUj-32" value="Tarea" style="swimlane;fontStyle=0;childLayout=stackLayout;horizontal=1;startSize=26;fillColor=none;horizontalStack=0;resizeParent=1;resizeParentMax=0;resizeLast=0;collapsible=1;marginBottom=0;" parent="WIyWlLk6GJQsqaUBKTNV-1" vertex="1"><mxGeometry x="690" y="370" width="140" height="104" as="geometry"/></mxCell><mxCell id="ugtasmN3zLT_TulPQqUj-36" value="-id: long" style="text;strokeColor=none;fillColor=none;align=left;verticalAlign=top;spacingLeft=4;spacingRight=4;overflow=hidden;rotatable=0;points=[[0,0.5],[1,0.5]];portConstraint=eastwest;" parent="ugtasmN3zLT_TulPQqUj-32" vertex="1"><mxGeometry y="26" width="140" height="26" as="geometry"/></mxCell><mxCell id="JDHlonyrIvoLY-r9E64h-22" value="-uuid: uuid" style="text;strokeColor=none;fillColor=none;align=left;verticalAlign=top;spacingLeft=4;spacingRight=4;overflow=hidden;rotatable=0;points=[[0,0.5],[1,0.5]];portConstraint=eastwest;" parent="ugtasmN3zLT_TulPQqUj-32" vertex="1"><mxGeometry y="52" width="140" height="26" as="geometry"/></mxCell><mxCell id="ugtasmN3zLT_TulPQqUj-42" value="-precio: double" style="text;strokeColor=none;fillColor=none;align=left;verticalAlign=top;spacingLeft=4;spacingRight=4;overflow=hidden;rotatable=0;points=[[0,0.5],[1,0.5]];portConstraint=eastwest;" parent="ugtasmN3zLT_TulPQqUj-32" vertex="1"><mxGeometry y="78" width="140" height="26" as="geometry"/></mxCell><mxCell id="JDHlonyrIvoLY-r9E64h-0" value="Pedido" style="swimlane;fontStyle=2;childLayout=stackLayout;horizontal=1;startSize=26;fillColor=none;horizontalStack=0;resizeParent=1;resizeParentMax=0;resizeLast=0;collapsible=1;marginBottom=0;" parent="WIyWlLk6GJQsqaUBKTNV-1" vertex="1"><mxGeometry x="690" y="93" width="140" height="208" as="geometry"/></mxCell><mxCell id="JDHlonyrIvoLY-r9E64h-49" value="-id: long" style="text;strokeColor=none;fillColor=none;align=left;verticalAlign=top;spacingLeft=4;spacingRight=4;overflow=hidden;rotatable=0;points=[[0,0.5],[1,0.5]];portConstraint=eastwest;" parent="JDHlonyrIvoLY-r9E64h-0" vertex="1"><mxGeometry y="26" width="140" height="26" as="geometry"/></mxCell><mxCell id="JDHlonyrIvoLY-r9E64h-50" value="-uuid: uuid" style="text;strokeColor=none;fillColor=none;align=left;verticalAlign=top;spacingLeft=4;spacingRight=4;overflow=hidden;rotatable=0;points=[[0,0.5],[1,0.5]];portConstraint=eastwest;" parent="JDHlonyrIvoLY-r9E64h-0" vertex="1"><mxGeometry y="52" width="140" height="26" as="geometry"/></mxCell><mxCell id="JDHlonyrIvoLY-r9E64h-1" value="-estado: enum" style="text;strokeColor=none;fillColor=none;align=left;verticalAlign=top;spacingLeft=4;spacingRight=4;overflow=hidden;rotatable=0;points=[[0,0.5],[1,0.5]];portConstraint=eastwest;" parent="JDHlonyrIvoLY-r9E64h-0" vertex="1"><mxGeometry y="78" width="140" height="26" as="geometry"/></mxCell><mxCell id="JDHlonyrIvoLY-r9E64h-2" value="-fechaEntrada: date" style="text;strokeColor=none;fillColor=none;align=left;verticalAlign=top;spacingLeft=4;spacingRight=4;overflow=hidden;rotatable=0;points=[[0,0.5],[1,0.5]];portConstraint=eastwest;" parent="JDHlonyrIvoLY-r9E64h-0" vertex="1"><mxGeometry y="104" width="140" height="26" as="geometry"/></mxCell><mxCell id="JDHlonyrIvoLY-r9E64h-3" value="-fechaProgramada: date" style="text;strokeColor=none;fillColor=none;align=left;verticalAlign=top;spacingLeft=4;spacingRight=4;overflow=hidden;rotatable=0;points=[[0,0.5],[1,0.5]];portConstraint=eastwest;" parent="JDHlonyrIvoLY-r9E64h-0" vertex="1"><mxGeometry y="130" width="140" height="26" as="geometry"/></mxCell><mxCell id="JDHlonyrIvoLY-r9E64h-8" value="-fechaSalida: date" style="text;strokeColor=none;fillColor=none;align=left;verticalAlign=top;spacingLeft=4;spacingRight=4;overflow=hidden;rotatable=0;points=[[0,0.5],[1,0.5]];portConstraint=eastwest;" parent="JDHlonyrIvoLY-r9E64h-0" vertex="1"><mxGeometry y="156" width="140" height="26" as="geometry"/></mxCell><mxCell id="JDHlonyrIvoLY-r9E64h-9" value="-total: double" style="text;strokeColor=none;fillColor=none;align=left;verticalAlign=top;spacingLeft=4;spacingRight=4;overflow=hidden;rotatable=0;points=[[0,0.5],[1,0.5]];portConstraint=eastwest;" parent="JDHlonyrIvoLY-r9E64h-0" vertex="1"><mxGeometry y="182" width="140" height="26" as="geometry"/></mxCell><mxCell id="JDHlonyrIvoLY-r9E64h-4" value="Estado&lt;&lt;enum&gt;&gt;" style="swimlane;fontStyle=2;childLayout=stackLayout;horizontal=1;startSize=26;fillColor=none;horizontalStack=0;resizeParent=1;resizeParentMax=0;resizeLast=0;collapsible=1;marginBottom=0;" parent="WIyWlLk6GJQsqaUBKTNV-1" vertex="1"><mxGeometry x="890" y="320" width="140" height="104" as="geometry"/></mxCell><mxCell id="JDHlonyrIvoLY-r9E64h-5" value="Recibido" style="text;strokeColor=none;fillColor=none;align=left;verticalAlign=top;spacingLeft=4;spacingRight=4;overflow=hidden;rotatable=0;points=[[0,0.5],[1,0.5]];portConstraint=eastwest;" parent="JDHlonyrIvoLY-r9E64h-4" vertex="1"><mxGeometry y="26" width="140" height="26" as="geometry"/></mxCell><mxCell id="JDHlonyrIvoLY-r9E64h-6" value="Procesando" style="text;strokeColor=none;fillColor=none;align=left;verticalAlign=top;spacingLeft=4;spacingRight=4;overflow=hidden;rotatable=0;points=[[0,0.5],[1,0.5]];portConstraint=eastwest;" parent="JDHlonyrIvoLY-r9E64h-4" vertex="1"><mxGeometry y="52" width="140" height="26" as="geometry"/></mxCell><mxCell id="JDHlonyrIvoLY-r9E64h-7" value="Terminado" style="text;strokeColor=none;fillColor=none;align=left;verticalAlign=top;spacingLeft=4;spacingRight=4;overflow=hidden;rotatable=0;points=[[0,0.5],[1,0.5]];portConstraint=eastwest;" parent="JDHlonyrIvoLY-r9E64h-4" vertex="1"><mxGeometry y="78" width="140" height="26" as="geometry"/></mxCell><mxCell id="JDHlonyrIvoLY-r9E64h-11" value="Producto" style="swimlane;fontStyle=2;childLayout=stackLayout;horizontal=1;startSize=26;fillColor=none;horizontalStack=0;resizeParent=1;resizeParentMax=0;resizeLast=0;collapsible=1;marginBottom=0;" parent="WIyWlLk6GJQsqaUBKTNV-1" vertex="1"><mxGeometry x="1070" y="523" width="140" height="208" as="geometry"/></mxCell><mxCell id="JDHlonyrIvoLY-r9E64h-51" value="-id: long" style="text;strokeColor=none;fillColor=none;align=left;verticalAlign=top;spacingLeft=4;spacingRight=4;overflow=hidden;rotatable=0;points=[[0,0.5],[1,0.5]];portConstraint=eastwest;" parent="JDHlonyrIvoLY-r9E64h-11" vertex="1"><mxGeometry y="26" width="140" height="26" as="geometry"/></mxCell><mxCell id="JDHlonyrIvoLY-r9E64h-52" value="-uuid: uuid" style="text;strokeColor=none;fillColor=none;align=left;verticalAlign=top;spacingLeft=4;spacingRight=4;overflow=hidden;rotatable=0;points=[[0,0.5],[1,0.5]];portConstraint=eastwest;" parent="JDHlonyrIvoLY-r9E64h-11" vertex="1"><mxGeometry y="52" width="140" height="26" as="geometry"/></mxCell><mxCell id="JDHlonyrIvoLY-r9E64h-12" value="-tipo: enum" style="text;strokeColor=none;fillColor=none;align=left;verticalAlign=top;spacingLeft=4;spacingRight=4;overflow=hidden;rotatable=0;points=[[0,0.5],[1,0.5]];portConstraint=eastwest;" parent="JDHlonyrIvoLY-r9E64h-11" vertex="1"><mxGeometry y="78" width="140" height="26" as="geometry"/></mxCell><mxCell id="JDHlonyrIvoLY-r9E64h-13" value="-marca: string" style="text;strokeColor=none;fillColor=none;align=left;verticalAlign=top;spacingLeft=4;spacingRight=4;overflow=hidden;rotatable=0;points=[[0,0.5],[1,0.5]];portConstraint=eastwest;" parent="JDHlonyrIvoLY-r9E64h-11" vertex="1"><mxGeometry y="104" width="140" height="26" as="geometry"/></mxCell><mxCell id="JDHlonyrIvoLY-r9E64h-14" value="-modelo: string" style="text;strokeColor=none;fillColor=none;align=left;verticalAlign=top;spacingLeft=4;spacingRight=4;overflow=hidden;rotatable=0;points=[[0,0.5],[1,0.5]];portConstraint=eastwest;" parent="JDHlonyrIvoLY-r9E64h-11" vertex="1"><mxGeometry y="130" width="140" height="26" as="geometry"/></mxCell><mxCell id="JDHlonyrIvoLY-r9E64h-20" value="-stock: int" style="text;strokeColor=none;fillColor=none;align=left;verticalAlign=top;spacingLeft=4;spacingRight=4;overflow=hidden;rotatable=0;points=[[0,0.5],[1,0.5]];portConstraint=eastwest;" parent="JDHlonyrIvoLY-r9E64h-11" vertex="1"><mxGeometry y="156" width="140" height="26" as="geometry"/></mxCell><mxCell id="JDHlonyrIvoLY-r9E64h-21" value="-precio: double" style="text;strokeColor=none;fillColor=none;align=left;verticalAlign=top;spacingLeft=4;spacingRight=4;overflow=hidden;rotatable=0;points=[[0,0.5],[1,0.5]];portConstraint=eastwest;" parent="JDHlonyrIvoLY-r9E64h-11" vertex="1"><mxGeometry y="182" width="140" height="26" as="geometry"/></mxCell><mxCell id="JDHlonyrIvoLY-r9E64h-15" value="Tipo&lt;&lt;enum&gt;&gt;" style="swimlane;fontStyle=2;childLayout=stackLayout;horizontal=1;startSize=26;fillColor=none;horizontalStack=0;resizeParent=1;resizeParentMax=0;resizeLast=0;collapsible=1;marginBottom=0;" parent="WIyWlLk6GJQsqaUBKTNV-1" vertex="1"><mxGeometry x="890" y="60" width="140" height="104" as="geometry"/></mxCell><mxCell id="JDHlonyrIvoLY-r9E64h-16" value="Raqueta" style="text;strokeColor=none;fillColor=none;align=left;verticalAlign=top;spacingLeft=4;spacingRight=4;overflow=hidden;rotatable=0;points=[[0,0.5],[1,0.5]];portConstraint=eastwest;" parent="JDHlonyrIvoLY-r9E64h-15" vertex="1"><mxGeometry y="26" width="140" height="26" as="geometry"/></mxCell><mxCell id="JDHlonyrIvoLY-r9E64h-17" value="Cordaje" style="text;strokeColor=none;fillColor=none;align=left;verticalAlign=top;spacingLeft=4;spacingRight=4;overflow=hidden;rotatable=0;points=[[0,0.5],[1,0.5]];portConstraint=eastwest;" parent="JDHlonyrIvoLY-r9E64h-15" vertex="1"><mxGeometry y="52" width="140" height="26" as="geometry"/></mxCell><mxCell id="JDHlonyrIvoLY-r9E64h-18" value="Complemento" style="text;strokeColor=none;fillColor=none;align=left;verticalAlign=top;spacingLeft=4;spacingRight=4;overflow=hidden;rotatable=0;points=[[0,0.5],[1,0.5]];portConstraint=eastwest;" parent="JDHlonyrIvoLY-r9E64h-15" vertex="1"><mxGeometry y="78" width="140" height="26" as="geometry"/></mxCell><mxCell id="JDHlonyrIvoLY-r9E64h-81" style="edgeStyle=none;rounded=0;orthogonalLoop=1;jettySize=auto;html=1;exitX=0.5;exitY=0;exitDx=0;exitDy=0;startArrow=none;startFill=0;endArrow=none;endFill=0;endSize=10;" parent="WIyWlLk6GJQsqaUBKTNV-1" source="JDHlonyrIvoLY-r9E64h-23" edge="1" target="ugtasmN3zLT_TulPQqUj-32"><mxGeometry relative="1" as="geometry"><mxPoint x="760" y="520" as="targetPoint"/><Array as="points"><mxPoint x="565" y="520"/></Array></mxGeometry></mxCell><mxCell id="JDHlonyrIvoLY-r9E64h-23" value="Encordar" style="swimlane;fontStyle=2;childLayout=stackLayout;horizontal=1;startSize=26;fillColor=none;horizontalStack=0;resizeParent=1;resizeParentMax=0;resizeLast=0;collapsible=1;marginBottom=0;" parent="WIyWlLk6GJQsqaUBKTNV-1" vertex="1"><mxGeometry x="450" y="588" width="230" height="156" as="geometry"/></mxCell><mxCell id="JDHlonyrIvoLY-r9E64h-24" value="-tensionCuerdasHorizontales: double" style="text;strokeColor=none;fillColor=none;align=left;verticalAlign=top;spacingLeft=4;spacingRight=4;overflow=hidden;rotatable=0;points=[[0,0.5],[1,0.5]];portConstraint=eastwest;" parent="JDHlonyrIvoLY-r9E64h-23" vertex="1"><mxGeometry y="26" width="230" height="26" as="geometry"/></mxCell><mxCell id="JDHlonyrIvoLY-r9E64h-25" value="-cordajeHorizontal: string" style="text;strokeColor=none;fillColor=none;align=left;verticalAlign=top;spacingLeft=4;spacingRight=4;overflow=hidden;rotatable=0;points=[[0,0.5],[1,0.5]];portConstraint=eastwest;" parent="JDHlonyrIvoLY-r9E64h-23" vertex="1"><mxGeometry y="52" width="230" height="26" as="geometry"/></mxCell><mxCell id="JDHlonyrIvoLY-r9E64h-26" value="-tensionCuerdasVerticales: double" style="text;strokeColor=none;fillColor=none;align=left;verticalAlign=top;spacingLeft=4;spacingRight=4;overflow=hidden;rotatable=0;points=[[0,0.5],[1,0.5]];portConstraint=eastwest;" parent="JDHlonyrIvoLY-r9E64h-23" vertex="1"><mxGeometry y="78" width="230" height="26" as="geometry"/></mxCell><mxCell id="JDHlonyrIvoLY-r9E64h-27" value="-cordajeVertical: string" style="text;strokeColor=none;fillColor=none;align=left;verticalAlign=top;spacingLeft=4;spacingRight=4;overflow=hidden;rotatable=0;points=[[0,0.5],[1,0.5]];portConstraint=eastwest;" parent="JDHlonyrIvoLY-r9E64h-23" vertex="1"><mxGeometry y="104" width="230" height="26" as="geometry"/></mxCell><mxCell id="JDHlonyrIvoLY-r9E64h-28" value="-nudos: int" style="text;strokeColor=none;fillColor=none;align=left;verticalAlign=top;spacingLeft=4;spacingRight=4;overflow=hidden;rotatable=0;points=[[0,0.5],[1,0.5]];portConstraint=eastwest;" parent="JDHlonyrIvoLY-r9E64h-23" vertex="1"><mxGeometry y="130" width="230" height="26" as="geometry"/></mxCell><mxCell id="JDHlonyrIvoLY-r9E64h-83" style="edgeStyle=none;rounded=0;orthogonalLoop=1;jettySize=auto;html=1;exitX=0.358;exitY=0.002;exitDx=0;exitDy=0;startArrow=none;startFill=0;endArrow=none;endFill=0;endSize=10;exitPerimeter=0;" parent="WIyWlLk6GJQsqaUBKTNV-1" source="JDHlonyrIvoLY-r9E64h-30" edge="1"><mxGeometry relative="1" as="geometry"><mxPoint x="760" y="520" as="targetPoint"/><Array as="points"><mxPoint x="760" y="560"/></Array></mxGeometry></mxCell><mxCell id="JDHlonyrIvoLY-r9E64h-30" value="Personalizar" style="swimlane;fontStyle=2;childLayout=stackLayout;horizontal=1;startSize=26;fillColor=none;horizontalStack=0;resizeParent=1;resizeParentMax=0;resizeLast=0;collapsible=1;marginBottom=0;" parent="WIyWlLk6GJQsqaUBKTNV-1" vertex="1"><mxGeometry x="710" y="588" width="140" height="104" as="geometry"/></mxCell><mxCell id="JDHlonyrIvoLY-r9E64h-31" value="-peso: double" style="text;strokeColor=none;fillColor=none;align=left;verticalAlign=top;spacingLeft=4;spacingRight=4;overflow=hidden;rotatable=0;points=[[0,0.5],[1,0.5]];portConstraint=eastwest;" parent="JDHlonyrIvoLY-r9E64h-30" vertex="1"><mxGeometry y="26" width="140" height="26" as="geometry"/></mxCell><mxCell id="JDHlonyrIvoLY-r9E64h-32" value="-balance: double " style="text;strokeColor=none;fillColor=none;align=left;verticalAlign=top;spacingLeft=4;spacingRight=4;overflow=hidden;rotatable=0;points=[[0,0.5],[1,0.5]];portConstraint=eastwest;" parent="JDHlonyrIvoLY-r9E64h-30" vertex="1"><mxGeometry y="52" width="140" height="26" as="geometry"/></mxCell><mxCell id="JDHlonyrIvoLY-r9E64h-33" value="-rigidez: int" style="text;strokeColor=none;fillColor=none;align=left;verticalAlign=top;spacingLeft=4;spacingRight=4;overflow=hidden;rotatable=0;points=[[0,0.5],[1,0.5]];portConstraint=eastwest;" parent="JDHlonyrIvoLY-r9E64h-30" vertex="1"><mxGeometry y="78" width="140" height="26" as="geometry"/></mxCell><mxCell id="JDHlonyrIvoLY-r9E64h-84" style="edgeStyle=none;rounded=0;orthogonalLoop=1;jettySize=auto;html=1;exitX=0.5;exitY=0;exitDx=0;exitDy=0;startArrow=none;startFill=0;endArrow=none;endFill=0;endSize=10;" parent="WIyWlLk6GJQsqaUBKTNV-1" source="JDHlonyrIvoLY-r9E64h-39" edge="1" target="ugtasmN3zLT_TulPQqUj-32"><mxGeometry relative="1" as="geometry"><mxPoint x="760" y="520" as="targetPoint"/><Array as="points"><mxPoint x="950" y="520"/></Array></mxGeometry></mxCell><mxCell id="JDHlonyrIvoLY-r9E64h-39" value="Adquisicion" style="swimlane;fontStyle=2;childLayout=stackLayout;horizontal=1;startSize=26;fillColor=none;horizontalStack=0;resizeParent=1;resizeParentMax=0;resizeLast=0;collapsible=1;marginBottom=0;" parent="WIyWlLk6GJQsqaUBKTNV-1" vertex="1"><mxGeometry x="880" y="588" width="140" height="52" as="geometry"/></mxCell><mxCell id="Y_18HijKy5V2VrQ97_Ps-2" value="-cantidad: int" style="text;strokeColor=none;fillColor=none;align=left;verticalAlign=top;spacingLeft=4;spacingRight=4;overflow=hidden;rotatable=0;points=[[0,0.5],[1,0.5]];portConstraint=eastwest;" parent="JDHlonyrIvoLY-r9E64h-39" vertex="1"><mxGeometry y="26" width="140" height="26" as="geometry"/></mxCell><mxCell id="JDHlonyrIvoLY-r9E64h-53" style="edgeStyle=orthogonalEdgeStyle;rounded=0;orthogonalLoop=1;jettySize=auto;html=1;exitX=1;exitY=0.5;exitDx=0;exitDy=0;endArrow=none;endFill=0;" parent="WIyWlLk6GJQsqaUBKTNV-1" target="JDHlonyrIvoLY-r9E64h-11" edge="1"><mxGeometry relative="1" as="geometry"><mxPoint x="1020" y="627" as="sourcePoint"/></mxGeometry></mxCell><mxCell id="JDHlonyrIvoLY-r9E64h-58" style="edgeStyle=orthogonalEdgeStyle;rounded=0;orthogonalLoop=1;jettySize=auto;html=1;exitX=1;exitY=0.5;exitDx=0;exitDy=0;startArrow=none;startFill=0;endArrow=none;endFill=0;" parent="WIyWlLk6GJQsqaUBKTNV-1" source="zkfFHV4jXpPFQw0GAbJ--2" target="JDHlonyrIvoLY-r9E64h-0" edge="1"><mxGeometry relative="1" as="geometry"><Array as="points"><mxPoint x="560" y="200"/></Array></mxGeometry></mxCell><mxCell id="JDHlonyrIvoLY-r9E64h-66" style="edgeStyle=orthogonalEdgeStyle;rounded=0;orthogonalLoop=1;jettySize=auto;html=1;exitX=0.5;exitY=0;exitDx=0;exitDy=0;startArrow=none;startFill=0;endArrow=none;endFill=0;" parent="WIyWlLk6GJQsqaUBKTNV-1" source="JDHlonyrIvoLY-r9E64h-59" target="zkfFHV4jXpPFQw0GAbJ--0" edge="1"><mxGeometry relative="1" as="geometry"><Array as="points"><mxPoint x="380" y="627"/><mxPoint x="380" y="458"/><mxPoint x="480" y="458"/></Array></mxGeometry></mxCell><mxCell id="1" style="edgeStyle=orthogonalEdgeStyle;rounded=0;orthogonalLoop=1;jettySize=auto;html=1;exitX=0.25;exitY=0;exitDx=0;exitDy=0;" parent="WIyWlLk6GJQsqaUBKTNV-1" source="JDHlonyrIvoLY-r9E64h-59" target="ugtasmN3zLT_TulPQqUj-20" edge="1"><mxGeometry relative="1" as="geometry"/></mxCell><mxCell id="JDHlonyrIvoLY-r9E64h-59" value="Turno" style="swimlane;fontStyle=2;childLayout=stackLayout;horizontal=1;startSize=26;fillColor=none;horizontalStack=0;resizeParent=1;resizeParentMax=0;resizeLast=0;collapsible=1;marginBottom=0;" parent="WIyWlLk6GJQsqaUBKTNV-1" vertex="1"><mxGeometry x="260" y="627" width="140" height="78" as="geometry"/></mxCell><mxCell id="JDHlonyrIvoLY-r9E64h-60" value="-id: long&#10;" style="text;strokeColor=none;fillColor=none;align=left;verticalAlign=top;spacingLeft=4;spacingRight=4;overflow=hidden;rotatable=0;points=[[0,0.5],[1,0.5]];portConstraint=eastwest;" parent="JDHlonyrIvoLY-r9E64h-59" vertex="1"><mxGeometry y="26" width="140" height="26" as="geometry"/></mxCell><mxCell id="JDHlonyrIvoLY-r9E64h-61" value="-horario: enum" style="text;strokeColor=none;fillColor=none;align=left;verticalAlign=top;spacingLeft=4;spacingRight=4;overflow=hidden;rotatable=0;points=[[0,0.5],[1,0.5]];portConstraint=eastwest;" parent="JDHlonyrIvoLY-r9E64h-59" vertex="1"><mxGeometry y="52" width="140" height="26" as="geometry"/></mxCell><mxCell id="JDHlonyrIvoLY-r9E64h-78" value="" style="endArrow=none;endSize=16;endFill=0;html=1;rounded=0;entryX=0.505;entryY=1;entryDx=0;entryDy=0;entryPerimeter=0;startArrow=none;startFill=0;" parent="WIyWlLk6GJQsqaUBKTNV-1" target="ugtasmN3zLT_TulPQqUj-42" edge="1"><mxGeometry x="-0.5322" y="-50" width="160" relative="1" as="geometry"><mxPoint x="760" y="520" as="sourcePoint"/><mxPoint x="820" y="523" as="targetPoint"/><mxPoint as="offset"/></mxGeometry></mxCell><mxCell id="JDHlonyrIvoLY-r9E64h-85" value="" style="endArrow=block;endSize=16;endFill=0;html=1;rounded=0;entryX=0.498;entryY=0.978;entryDx=0;entryDy=0;entryPerimeter=0;" parent="WIyWlLk6GJQsqaUBKTNV-1" target="ugtasmN3zLT_TulPQqUj-15" edge="1"><mxGeometry x="-0.61" y="-112" width="160" relative="1" as="geometry"><mxPoint x="140" y="359" as="sourcePoint"/><mxPoint x="200" y="529" as="targetPoint"/><mxPoint as="offset"/></mxGeometry></mxCell><mxCell id="Y_18HijKy5V2VrQ97_Ps-3" value="Horario&lt;&lt;enum&gt;&gt;" style="swimlane;fontStyle=2;childLayout=stackLayout;horizontal=1;startSize=26;fillColor=none;horizontalStack=0;resizeParent=1;resizeParentMax=0;resizeLast=0;collapsible=1;marginBottom=0;" parent="WIyWlLk6GJQsqaUBKTNV-1" vertex="1"><mxGeometry x="1080" y="60" width="140" height="78" as="geometry"/></mxCell><mxCell id="Y_18HijKy5V2VrQ97_Ps-4" value="Mañana" style="text;strokeColor=none;fillColor=none;align=left;verticalAlign=top;spacingLeft=4;spacingRight=4;overflow=hidden;rotatable=0;points=[[0,0.5],[1,0.5]];portConstraint=eastwest;" parent="Y_18HijKy5V2VrQ97_Ps-3" vertex="1"><mxGeometry y="26" width="140" height="26" as="geometry"/></mxCell><mxCell id="Y_18HijKy5V2VrQ97_Ps-5" value="Tarde" style="text;strokeColor=none;fillColor=none;align=left;verticalAlign=top;spacingLeft=4;spacingRight=4;overflow=hidden;rotatable=0;points=[[0,0.5],[1,0.5]];portConstraint=eastwest;" parent="Y_18HijKy5V2VrQ97_Ps-3" vertex="1"><mxGeometry y="52" width="140" height="26" as="geometry"/></mxCell><mxCell id="Y_18HijKy5V2VrQ97_Ps-8" value="1" style="text;html=1;strokeColor=none;fillColor=none;align=center;verticalAlign=middle;whiteSpace=wrap;rounded=0;" parent="WIyWlLk6GJQsqaUBKTNV-1" vertex="1"><mxGeometry x="270" y="350" width="60" height="30" as="geometry"/></mxCell><mxCell id="Y_18HijKy5V2VrQ97_Ps-9" value="1" style="text;html=1;strokeColor=none;fillColor=none;align=center;verticalAlign=middle;whiteSpace=wrap;rounded=0;" parent="WIyWlLk6GJQsqaUBKTNV-1" vertex="1"><mxGeometry x="480" y="288" width="60" height="30" as="geometry"/></mxCell><mxCell id="Y_18HijKy5V2VrQ97_Ps-10" value="1" style="text;html=1;strokeColor=none;fillColor=none;align=center;verticalAlign=middle;whiteSpace=wrap;rounded=0;" parent="WIyWlLk6GJQsqaUBKTNV-1" vertex="1"><mxGeometry x="350" y="424" width="60" height="30" as="geometry"/></mxCell><mxCell id="Y_18HijKy5V2VrQ97_Ps-11" value="0..1" style="text;html=1;strokeColor=none;fillColor=none;align=center;verticalAlign=middle;whiteSpace=wrap;rounded=0;" parent="WIyWlLk6GJQsqaUBKTNV-1" vertex="1"><mxGeometry x="480" y="362" width="60" height="30" as="geometry"/></mxCell><mxCell id="Y_18HijKy5V2VrQ97_Ps-12" value="1" style="text;html=1;strokeColor=none;fillColor=none;align=center;verticalAlign=middle;whiteSpace=wrap;rounded=0;" parent="WIyWlLk6GJQsqaUBKTNV-1" vertex="1"><mxGeometry x="560" y="169" width="60" height="30" as="geometry"/></mxCell><mxCell id="Y_18HijKy5V2VrQ97_Ps-13" value="0..*" style="text;html=1;strokeColor=none;fillColor=none;align=center;verticalAlign=middle;whiteSpace=wrap;rounded=0;" parent="WIyWlLk6GJQsqaUBKTNV-1" vertex="1"><mxGeometry x="630" y="169" width="60" height="30" as="geometry"/></mxCell><mxCell id="Y_18HijKy5V2VrQ97_Ps-15" value="1" style="text;html=1;strokeColor=none;fillColor=none;align=center;verticalAlign=middle;whiteSpace=wrap;rounded=0;" parent="WIyWlLk6GJQsqaUBKTNV-1" vertex="1"><mxGeometry x="760" y="301" width="60" height="30" as="geometry"/></mxCell><mxCell id="Y_18HijKy5V2VrQ97_Ps-16" value="1..*" style="text;html=1;strokeColor=none;fillColor=none;align=center;verticalAlign=middle;whiteSpace=wrap;rounded=0;" parent="WIyWlLk6GJQsqaUBKTNV-1" vertex="1"><mxGeometry x="760" y="340" width="60" height="30" as="geometry"/></mxCell><mxCell id="Y_18HijKy5V2VrQ97_Ps-18" style="edgeStyle=orthogonalEdgeStyle;rounded=0;orthogonalLoop=1;jettySize=auto;html=1;exitX=0;exitY=0.5;exitDx=0;exitDy=0;endArrow=none;endFill=0;" parent="WIyWlLk6GJQsqaUBKTNV-1" source="ugtasmN3zLT_TulPQqUj-36" target="zkfFHV4jXpPFQw0GAbJ--0" edge="1"><mxGeometry relative="1" as="geometry"><Array as="points"><mxPoint x="650" y="409"/><mxPoint x="650" y="280"/></Array></mxGeometry></mxCell><mxCell id="Y_18HijKy5V2VrQ97_Ps-20" value="1" style="text;html=1;strokeColor=none;fillColor=none;align=center;verticalAlign=middle;whiteSpace=wrap;rounded=0;" parent="WIyWlLk6GJQsqaUBKTNV-1" vertex="1"><mxGeometry x="560" y="245" width="60" height="30" as="geometry"/></mxCell><mxCell id="Y_18HijKy5V2VrQ97_Ps-21" value="0..2" style="text;html=1;strokeColor=none;fillColor=none;align=center;verticalAlign=middle;whiteSpace=wrap;rounded=0;" parent="WIyWlLk6GJQsqaUBKTNV-1" vertex="1"><mxGeometry x="640" y="380" width="60" height="30" as="geometry"/></mxCell><mxCell id="0" style="edgeStyle=orthogonalEdgeStyle;rounded=0;orthogonalLoop=1;jettySize=auto;html=1;exitX=0;exitY=0.5;exitDx=0;exitDy=0;" parent="WIyWlLk6GJQsqaUBKTNV-1" source="JDHlonyrIvoLY-r9E64h-60" target="ugtasmN3zLT_TulPQqUj-16" edge="1"><mxGeometry relative="1" as="geometry"/></mxCell></root></mxGraphModel></diagram></mxfile>